<?xml version="1.0" encoding="UTF-8" standalone="no"?>
<!DOCTYPE svg PUBLIC "-//W3C//DTD SVG 1.1//EN"
 "http://www.w3.org/Graphics/SVG/1.1/DTD/svg11.dtd">
<!-- Generated by graphviz version 2.42.4 (0)
 -->
<!-- Title: tb_etl_clean Pages: 1 -->
<svg width="2384pt" height="581pt"
 viewBox="0.00 0.00 2383.80 581.30" xmlns="http://www.w3.org/2000/svg" xmlns:xlink="http://www.w3.org/1999/xlink">
<g id="graph0" class="graph" transform="scale(1 1) rotate(0) translate(32.4 548.9)">
<title>tb_etl_clean</title>
<polygon fill="white" stroke="transparent" points="-32.4,32.4 -32.4,-548.9 2351.4,-548.9 2351.4,32.4 -32.4,32.4"/>
<!-- title&#45;&gt;forms -->
<!-- sources&#45;&gt;orchestrator -->
<g id="edge6" class="edge">
<title>sources&#45;&gt;orchestrator</title>
<path fill="none" stroke="#6b7280" stroke-width="1.5" d="M194.03,-207C194.03,-207 502.42,-207 502.42,-207"/>
<polygon fill="#6b7280" stroke="#6b7280" stroke-width="1.5" points="502.42,-209.63 509.92,-207 502.42,-204.38 502.42,-209.63"/>
<text text-anchor="middle" x="277" y="-210" font-family="Arial" font-size="10.00">регистрация и запуск</text>
</g>
<!-- orchestrator&#45;&gt;forms -->
<g id="edge7" class="edge">
<title>orchestrator&#45;&gt;forms</title>
<path fill="none" stroke="#6b7280" stroke-width="1.5" d="M719.21,-257.88C844.33,-257.88 1037,-257.88 1037,-257.88 1037,-257.88 1037,-419.87 1037,-419.87"/>
<polygon fill="#6b7280" stroke="#6b7280" stroke-width="1.5" points="1034.38,-419.87 1037,-427.37 1039.63,-419.87 1034.38,-419.87"/>
<text text-anchor="middle" x="948.5" y="-379" font-family="Arial" font-size="10.00">парсинг форм</text>
</g>
<!-- orchestrator&#45;&gt;refs -->
<g id="edge8" class="edge">
<title>orchestrator&#45;&gt;refs</title>
<path fill="none" stroke="#6b7280" stroke-width="1.5" d="M719.24,-251.75C869.67,-251.75 1129,-251.75 1129,-251.75 1129,-251.75 1129,-264.3 1129,-264.3"/>
<polygon fill="#6b7280" stroke="#6b7280" stroke-width="1.5" points="1126.38,-264.3 1129,-271.8 1131.63,-264.3 1126.38,-264.3"/>
<text text-anchor="middle" x="948.5" y="-263" font-family="Arial" font-size="10.00">загрузка</text>
</g>
<!-- orchestrator&#45;&gt;regional_raw -->
<g id="edge9" class="edge">
<title>orchestrator&#45;&gt;regional_raw</title>
<path fill="none" stroke="#6b7280" stroke-width="1.5" d="M719.22,-171C719.22,-171 1038.27,-171 1038.27,-171"/>
<polygon fill="#6b7280" stroke="#6b7280" stroke-width="1.5" points="1038.27,-173.63 1045.77,-171 1038.27,-168.38 1038.27,-173.63"/>
<text text-anchor="middle" x="948.5" y="-182" font-family="Arial" font-size="10.00">парсинг DOCX/PDF</text>
</g>
<!-- orchestrator&#45;&gt;exports -->
<g id="edge10" class="edge">
<title>orchestrator&#45;&gt;exports</title>
<path fill="none" stroke="#6b7280" stroke-width="1.5" stroke-dasharray="5,2" d="M615,-149.78C615,-100.76 615,-38 615,-38 615,-38 1057.77,-38 1057.77,-38"/>
<polygon fill="#6b7280" stroke="#6b7280" stroke-width="1.5" points="1057.77,-40.63 1065.27,-38 1057.77,-35.38 1057.77,-40.63"/>
<text text-anchor="middle" x="948.5" y="-96" font-family="Arial" font-size="10.00">safe&#45;run / &#45;&#45;skip&#45;db</text>
</g>
<!-- forms&#45;&gt;refs -->
<!-- forms&#45;&gt;calc -->
<g id="edge11" class="edge">
<title>forms&#45;&gt;calc</title>
<path fill="none" stroke="#6b7280" stroke-width="1.5" d="M1294.3,-449.75C1294.3,-449.75 1605.17,-449.75 1605.17,-449.75"/>
<polygon fill="#6b7280" stroke="#6b7280" stroke-width="1.5" points="1605.17,-452.38 1612.67,-449.75 1605.17,-447.13 1605.17,-452.38"/>
<text text-anchor="middle" x="1360" y="-456" font-family="Arial" font-size="10.00">данные форм</text>
</g>
<!-- refs&#45;&gt;regional_raw -->
<!-- refs&#45;&gt;sql_layer -->
<g id="edge14" class="edge">
<title>refs&#45;&gt;sql_layer</title>
<path fill="none" stroke="#6b7280" stroke-width="1.5" d="M1258.25,-294.25C1258.25,-294.25 1594.58,-294.25 1594.58,-294.25"/>
<polygon fill="#6b7280" stroke="#6b7280" stroke-width="1.5" points="1594.59,-296.88 1602.08,-294.25 1594.58,-291.63 1594.59,-296.88"/>
<text text-anchor="middle" x="1360" y="-297" font-family="Arial" font-size="10.00">геоданные</text>
</g>
<!-- refs&#45;&gt;calc -->
<g id="edge12" class="edge">
<title>refs&#45;&gt;calc</title>
<path fill="none" stroke="#6b7280" stroke-width="1.5" d="M1194,-348.18C1194,-377.05 1194,-411.75 1194,-411.75 1194,-411.75 1605.32,-411.75 1605.32,-411.75"/>
<polygon fill="#6b7280" stroke="#6b7280" stroke-width="1.5" points="1605.32,-414.38 1612.82,-411.75 1605.32,-409.13 1605.32,-414.38"/>
<text text-anchor="middle" x="1360" y="-378" font-family="Arial" font-size="10.00">tb_population</text>
</g>
<!-- regional_raw&#45;&gt;sql_layer -->
<g id="edge13" class="edge">
<title>regional_raw&#45;&gt;sql_layer</title>
<path fill="none" stroke="#6b7280" stroke-width="1.5" d="M1267,-192.06C1267,-217.24 1267,-245.62 1267,-245.62 1267,-245.62 1594.86,-245.62 1594.86,-245.62"/>
<polygon fill="#6b7280" stroke="#6b7280" stroke-width="1.5" points="1594.86,-248.25 1602.36,-245.62 1594.86,-243 1594.86,-248.25"/>
<text text-anchor="middle" x="1360" y="-199" font-family="Arial" font-size="10.00">объединение</text>
</g>
<!-- sql_layer&#45;&gt;map_view -->
<!-- sql_layer&#45;&gt;map_view -->
<g id="edge15" class="edge">
<title>sql_layer&#45;&gt;map_view</title>
<path fill="none" stroke="#6b7280" stroke-width="1.5" d="M1755,-239.44C1755,-239.44 1755,-167.62 1755,-167.62"/>
<polygon fill="#6b7280" stroke="#6b7280" stroke-width="1.5" points="1757.63,-167.62 1755,-160.12 1752.38,-167.62 1757.63,-167.62"/>
</g>
<!-- calc&#45;&gt;sql_layer -->
<!-- calc&#45;&gt;datalens -->
<g id="edge16" class="edge">
<title>calc&#45;&gt;datalens</title>
<path fill="none" stroke="#6b7280" stroke-width="1.5" d="M1822.13,-434C1972.81,-434 2233,-434 2233,-434 2233,-434 2233,-167.76 2233,-167.76"/>
<polygon fill="#6b7280" stroke="#6b7280" stroke-width="1.5" points="2235.63,-167.76 2233,-160.26 2230.38,-167.76 2235.63,-167.76"/>
<text text-anchor="middle" x="2077.5" y="-309" font-family="Arial" font-size="10.00">KPI и графики</text>
</g>
<!-- map_view&#45;&gt;datalens -->
<g id="edge17" class="edge">
<title>map_view&#45;&gt;datalens</title>
<path fill="none" stroke="#6b7280" stroke-width="1.5" d="M1829.25,-122C1829.25,-122 2138.16,-122 2138.16,-122"/>
<polygon fill="#6b7280" stroke="#6b7280" stroke-width="1.5" points="2138.16,-124.63 2145.66,-122 2138.16,-119.38 2138.16,-124.63"/>
<text text-anchor="middle" x="2077.5" y="-125" font-family="Arial" font-size="10.00">карта регионов</text>
</g>
<!-- exports&#45;&gt;note -->
<!-- note&#45;&gt;datalens -->
<!-- title -->
<g id="node1" class="node">
<title>title</title>
<text text-anchor="middle" x="614.5" y="-466.4" font-family="Arial" font-size="22.00">Схема ETL&#45;процесса проекта medical_statistics_tb</text>
</g>
<!-- sources -->
<g id="node2" class="node">
<title>sources</title>
<path fill="#eaf2ff" stroke="#4f81bd" stroke-width="1.8" d="M182,-257.5C182,-257.5 12,-257.5 12,-257.5 6,-257.5 0,-251.5 0,-245.5 0,-245.5 0,-168.5 0,-168.5 0,-162.5 6,-156.5 12,-156.5 12,-156.5 182,-156.5 182,-156.5 188,-156.5 194,-162.5 194,-168.5 194,-168.5 194,-245.5 194,-245.5 194,-251.5 188,-257.5 182,-257.5"/>
<text text-anchor="start" x="10" y="-238" font-family="Arial" font-weight="bold" font-size="15.00">Исходные файлы data/</text>
<text text-anchor="start" x="75.5" y="-215.2" font-family="Arial" font-size="11.00">Форма 8</text>
<text text-anchor="start" x="72.5" y="-203.2" font-family="Arial" font-size="11.00">Форма 30</text>
<text text-anchor="start" x="72.5" y="-191.2" font-family="Arial" font-size="11.00">Форма 33</text>
<text text-anchor="start" x="42" y="-179.2" font-family="Arial" font-size="11.00">Сборники DOCX/PDF</text>
<text text-anchor="start" x="38" y="-167.2" font-family="Arial" font-size="11.00">Население, геоданные</text>
</g>
<!-- orchestrator -->
<g id="node3" class="node">
<title>orchestrator</title>
<path fill="#fff4d6" stroke="#d99a00" stroke-width="1.8" d="M707,-264C707,-264 522,-264 522,-264 516,-264 510,-258 510,-252 510,-252 510,-162 510,-162 510,-156 516,-150 522,-150 522,-150 707,-150 707,-150 713,-150 719,-156 719,-162 719,-162 719,-252 719,-252 719,-258 713,-264 707,-264"/>
<text text-anchor="start" x="550.5" y="-245" font-family="Arial" font-weight="bold" font-size="15.00">Оркестратор ETL</text>
<text text-anchor="start" x="578.5" y="-222.2" font-family="Arial" font-size="11.00">orchestrator.py</text>
<text text-anchor="start" x="593" y="-210.2" font-family="Arial" font-size="11.00">config.py</text>
<text text-anchor="start" x="577" y="-198.2" font-family="Arial" font-size="11.00">db_manager.py</text>
<text text-anchor="start" x="577" y="-173" font-family="Arial" font-size="11.00">etl_source_files</text>
<text text-anchor="start" x="578.5" y="-161" font-family="Arial" font-size="11.00">etl_parse_runs</text>
</g>
<!-- forms -->
<g id="node4" class="node">
<title>forms</title>
<path fill="#e9f6e4" stroke="#6aa84f" stroke-width="1.8" d="M1282,-516.5C1282,-516.5 1040,-516.5 1040,-516.5 1034,-516.5 1028,-510.5 1028,-504.5 1028,-504.5 1028,-439.5 1028,-439.5 1028,-433.5 1034,-427.5 1040,-427.5 1040,-427.5 1282,-427.5 1282,-427.5 1288,-427.5 1294,-433.5 1294,-439.5 1294,-439.5 1294,-504.5 1294,-504.5 1294,-510.5 1288,-516.5 1282,-516.5"/>
<text text-anchor="start" x="1062" y="-497" font-family="Arial" font-weight="bold" font-size="15.00">Нормализованные формы</text>
<text text-anchor="start" x="1125" y="-474.2" font-family="Arial" font-size="11.00">tb_form8_1000</text>
<text text-anchor="start" x="1089" y="-462.2" font-family="Arial" font-size="11.00">tb_form30_1100 / 2513 / 3100</text>
<text text-anchor="start" x="1072.5" y="-450.2" font-family="Arial" font-size="11.00">tb_form33_2100 / 2200 / 2300 / 2310</text>
<text text-anchor="start" x="1089" y="-438.2" font-family="Arial" font-size="11.00">tb_form33_2400 / 2500 / 2600</text>
</g>
<!-- refs -->
<g id="node5" class="node">
<title>refs</title>
<path fill="#e9f6e4" stroke="#6aa84f" stroke-width="1.8" d="M1246,-348C1246,-348 1076,-348 1076,-348 1070,-348 1064,-342 1064,-336 1064,-336 1064,-284 1064,-284 1064,-278 1070,-272 1076,-272 1076,-272 1246,-272 1246,-272 1252,-272 1258,-278 1258,-284 1258,-284 1258,-336 1258,-336 1258,-342 1252,-348 1246,-348"/>
<text text-anchor="start" x="1112" y="-323" font-family="Arial" font-weight="bold" font-size="15.00">Справочники</text>
<text text-anchor="start" x="1129" y="-300.2" font-family="Arial" font-size="11.00">tb_population</text>
<text text-anchor="start" x="1136" y="-288.2" font-family="Arial" font-size="11.00">tb_regions</text>
</g>
<!-- regional_raw -->
<g id="node6" class="node">
<title>regional_raw</title>
<path fill="#e9f6e4" stroke="#6aa84f" stroke-width="1.8" d="M1264,-192C1264,-192 1058,-192 1058,-192 1052,-192 1046,-186 1046,-180 1046,-180 1046,-128 1046,-128 1046,-122 1052,-116 1058,-116 1058,-116 1264,-116 1264,-116 1270,-116 1276,-122 1276,-128 1276,-128 1276,-180 1276,-180 1276,-186 1270,-192 1264,-192"/>
<text text-anchor="start" x="1076.5" y="-167" font-family="Arial" font-weight="bold" font-size="15.00">Региональные данные</text>
<text text-anchor="start" x="1062" y="-144.2" font-family="Arial" font-size="11.00">tuberculosis_incidence_by_subjects_docx</text>
<text text-anchor="start" x="1065.5" y="-132.2" font-family="Arial" font-size="11.00">tuberculosis_incidence_by_subjects_pdf</text>
</g>
<!-- sql_layer -->
<g id="node7" class="node">
<title>sql_layer</title>
<path fill="#f4f4f4" stroke="#8a8a8a" stroke-width="1.8" d="M1820.5,-316.5C1820.5,-316.5 1614.5,-316.5 1614.5,-316.5 1608.5,-316.5 1602.5,-310.5 1602.5,-304.5 1602.5,-304.5 1602.5,-251.5 1602.5,-251.5 1602.5,-245.5 1608.5,-239.5 1614.5,-239.5 1614.5,-239.5 1820.5,-239.5 1820.5,-239.5 1826.5,-239.5 1832.5,-245.5 1832.5,-251.5 1832.5,-251.5 1832.5,-304.5 1832.5,-304.5 1832.5,-310.5 1826.5,-316.5 1820.5,-316.5"/>
<text text-anchor="start" x="1681.5" y="-297" font-family="Arial" font-weight="bold" font-size="15.00">SQL&#45;слой</text>
<text text-anchor="start" x="1651" y="-274.2" font-family="Arial" font-size="11.00">dim_subject_federal_district</text>
<text text-anchor="start" x="1649.5" y="-262.2" font-family="Arial" font-size="11.00">dim_tb_subject_region_map</text>
<text text-anchor="start" x="1664.5" y="-250.2" font-family="Arial" font-size="11.00">tb_incidence_subjects</text>
</g>
<!-- calc -->
<g id="node8" class="node">
<title>calc</title>
<path fill="#efe1fa" stroke="#9b5de5" stroke-width="1.8" d="M1810,-472C1810,-472 1625,-472 1625,-472 1619,-472 1613,-466 1613,-460 1613,-460 1613,-408 1613,-408 1613,-402 1619,-396 1625,-396 1625,-396 1810,-396 1810,-396 1816,-396 1822,-402 1822,-408 1822,-408 1822,-460 1822,-460 1822,-466 1816,-472 1810,-472"/>
<text text-anchor="start" x="1632.5" y="-447" font-family="Arial" font-weight="bold" font-size="15.00">Расчетные показатели</text>
<text text-anchor="start" x="1670.5" y="-424.2" font-family="Arial" font-size="11.00">sql/tb_indicators.sql</text>
<text text-anchor="start" x="1660" y="-412.2" font-family="Arial" font-size="11.00">tb_calculated_indicators</text>
</g>
<!-- map_view -->
<g id="node9" class="node">
<title>map_view</title>
<path fill="#efe1fa" stroke="#9b5de5" stroke-width="1.8" d="M1817,-160C1817,-160 1618,-160 1618,-160 1612,-160 1606,-154 1606,-148 1606,-148 1606,-96 1606,-96 1606,-90 1612,-84 1618,-84 1618,-84 1817,-84 1817,-84 1823,-84 1829,-90 1829,-96 1829,-96 1829,-148 1829,-148 1829,-154 1823,-160 1817,-160"/>
<text text-anchor="start" x="1652" y="-129" font-family="Arial" font-weight="bold" font-size="15.00">BI&#45;витрина карты</text>
<text text-anchor="start" x="1622.5" y="-106.2" font-family="Arial" font-size="11.00">v_tb_incidence_subjects_datalens_map</text>
</g>
<!-- exports -->
<g id="node10" class="node">
<title>exports</title>
<path fill="#f7fbff" stroke="#8faadc" stroke-width="1.8" d="M1244.5,-76C1244.5,-76 1077.5,-76 1077.5,-76 1071.5,-76 1065.5,-70 1065.5,-64 1065.5,-64 1065.5,-12 1065.5,-12 1065.5,-6 1071.5,0 1077.5,0 1077.5,0 1244.5,0 1244.5,0 1250.5,0 1256.5,-6 1256.5,-12 1256.5,-12 1256.5,-64 1256.5,-64 1256.5,-70 1250.5,-76 1244.5,-76"/>
<text text-anchor="start" x="1074" y="-51" font-family="Arial" font-weight="bold" font-size="15.00">Контрольные выгрузки</text>
<text text-anchor="start" x="1123.5" y="-28.2" font-family="Arial" font-size="11.00">processed/*.csv</text>
<text text-anchor="start" x="1087.5" y="-16.2" font-family="Arial" font-size="11.00">проверка без перезаписи БД</text>
</g>
<!-- datalens -->
<g id="node11" class="node">
<title>datalens</title>
<path fill="#e5f4ff" stroke="#3d85c6" stroke-width="1.8" d="M2307,-160C2307,-160 2158,-160 2158,-160 2152,-160 2146,-154 2146,-148 2146,-148 2146,-96 2146,-96 2146,-90 2152,-84 2158,-84 2158,-84 2307,-84 2307,-84 2313,-84 2319,-90 2319,-96 2319,-96 2319,-148 2319,-148 2319,-154 2313,-160 2307,-160"/>
<text text-anchor="start" x="2170.5" y="-135" font-family="Arial" font-weight="bold" font-size="15.00">Yandex DataLens</text>
<text text-anchor="start" x="2209" y="-112.2" font-family="Arial" font-size="11.00">дашборд</text>
<text text-anchor="start" x="2182.5" y="-100.2" font-family="Arial" font-size="11.00">KPI, графики, карта</text>
</g>
<!-- note -->
<g id="node12" class="node">
<title>note</title>
<text text-anchor="middle" x="1717.5" y="-35.5" font-family="Arial" font-size="10.00" fill="#666666">Примечание: в DataLens идут только финальные сущности — tb_calculated_indicators и v_tb_incidence_subjects_datalens_map.</text>
</g>
</g>
</svg>
